<svg width="25" height="28" viewBox="0 0 25 28" fill="none" xmlns="http://www.w3.org/2000/svg">
<path d="M5.89125 11.9361L5.48092 12.413L5.73324 12.9894C7.25543 16.4664 9.71823 19.3289 12.7525 21.1359L13.4743 21.5657L14.0222 20.9289L16.2068 18.3898C17.4103 18.8426 18.7063 19.0894 20.0348 19.0949C20.0559 19.1221 20.0836 19.1788 20.0836 19.2617V23.3333C20.0836 23.4161 20.056 23.4726 20.0349 23.4999C11.3174 23.4716 4.01562 15.1977 4.01562 4.66667C4.01562 4.58385 4.0433 4.52725 4.06438 4.5H7.48764C7.50873 4.52725 7.5364 4.58385 7.5364 4.66667C7.5364 6.21388 7.74899 7.70319 8.14438 9.09709C8.17614 9.22001 8.14042 9.32197 8.09956 9.36946L5.89125 11.9361Z" stroke="#F8F5EC" stroke-width="2"/>
</svg>
