<svg width="49" height="45" viewBox="0 0 49 45" fill="none" xmlns="http://www.w3.org/2000/svg">
<path fill-rule="evenodd" clip-rule="evenodd" d="M47.1072 11.8229L42.8555 17.7812L38.6039 11.8229H40.9221C40.7453 7.39583 37.0966 3.85417 32.6371 3.85417C28.8741 3.85417 25.6828 6.38542 24.6745 9.83333C23.4478 9.4375 22.1796 9.1875 20.8906 9.07292C21.0362 8.52083 21.2233 7.96875 21.452 7.4375C22.0653 5.98958 22.9385 4.6875 24.0507 3.57292C25.163 2.45833 26.4624 1.57292 27.9073 0.96875C29.4042 0.322917 30.9947 0 32.6371 0C34.2796 0 35.87 0.322917 37.3669 0.958333C38.8118 1.57292 40.1112 2.44792 41.2235 3.5625C42.3358 4.67708 43.209 5.97917 43.8223 7.42708C44.4148 8.82292 44.7371 10.3021 44.7683 11.8229H47.1072Z" fill="#89BCD9"/>
<path fill-rule="evenodd" clip-rule="evenodd" d="M41.1571 44.9987V42.4362H26.5C26.604 42.3841 26.7079 42.3424 26.8119 42.2904C28.4023 41.5299 29.868 40.5404 31.1778 39.332C31.3545 39.1654 31.5208 39.0091 31.6768 38.8529C31.8535 38.6758 32.0406 38.4883 32.2173 38.2904C32.4252 38.0612 32.6331 37.8216 32.8202 37.582H41.1571V35.0195L48.1219 40.0091L41.1571 44.9987Z" fill="#89BCD9"/>
<path fill-rule="evenodd" clip-rule="evenodd" d="M35.7518 26.4909C35.7518 28.7096 35.3152 30.8659 34.4628 32.8971C33.7351 34.6263 32.7164 36.2096 31.4482 37.5951C31.2819 37.7721 31.1155 37.9492 30.9492 38.1263C30.7933 38.2826 30.6374 38.4284 30.4814 38.5846C29.2548 39.7201 27.8827 40.6471 26.3858 41.3659C26.1779 41.4701 25.9596 41.5638 25.7413 41.6576C25.7309 41.6576 25.7309 41.668 25.7205 41.668C24.4731 42.1992 23.1321 42.4596 21.7703 42.4596H0.148438V37.6159H20.2214C26.2922 37.6159 31.2715 32.7513 31.3546 26.668C31.3546 26.6159 31.3546 26.5638 31.3546 26.5117C31.3546 19.8659 25.97 14.4701 19.3379 14.4701C12.7058 14.4492 7.32108 19.8346 7.32108 26.4909H10.107L5.12771 33.4701L0.148438 26.4909H2.93433C2.93433 24.2721 3.37093 22.1159 4.22333 20.0846C5.05494 18.1263 6.22959 16.3659 7.73689 14.8555C9.24418 13.3451 11.001 12.1576 12.9552 11.3346C14.9823 10.4805 17.1341 10.043 19.3483 10.043C19.7952 10.043 20.2318 10.0638 20.6684 10.0951C21.9574 10.1992 23.2152 10.4492 24.4419 10.8555C24.8785 11.0013 25.3047 11.1576 25.7309 11.3451C27.6852 12.1784 29.4419 13.3555 30.9492 14.8659C32.4565 16.3763 33.6416 18.1367 34.4628 20.0951C35.3152 22.1159 35.7518 24.2721 35.7518 26.4909Z" fill="#89BCD9"/>
</svg>
